<?xml version="1.0" encoding="UTF-8" standalone="no"?>
<!DOCTYPE svg PUBLIC "-//W3C//DTD SVG 1.1//EN"
 "http://www.w3.org/Graphics/SVG/1.1/DTD/svg11.dtd">
<!-- Generated by graphviz version 2.36.0 (20140111.2315)
 -->
<!-- Title: %3 Pages: 1 -->
<svg width="735pt" height="419pt"
 viewBox="0.00 0.00 734.85 419.00" xmlns="http://www.w3.org/2000/svg" xmlns:xlink="http://www.w3.org/1999/xlink">
<g id="graph0" class="graph" transform="scale(1 1) rotate(0) translate(4 415)">
<title>%3</title>
<polygon fill="white" stroke="none" points="-4,4 -4,-415 730.854,-415 730.854,4 -4,4"/>
<text text-anchor="middle" x="363.427" y="-7.8" font-family="Times,serif" font-size="14.00">MLK</text>
<!-- xBodyEl -->
<g id="node1" class="node"><title>xBodyEl</title>
<polygon fill="none" stroke="black" points="136.354,-411 79.3536,-411 79.3536,-375 136.354,-375 136.354,-411"/>
<text text-anchor="middle" x="107.854" y="-389.3" font-family="Times,serif" font-size="14.00">BodyEl</text>
</g>
<!-- xMlkViewUpdate -->
<g id="node2" class="node"><title>xMlkViewUpdate</title>
<polygon fill="none" stroke="black" points="231.854,-323 123.854,-323 123.854,-287 231.854,-287 231.854,-323"/>
<text text-anchor="middle" x="177.854" y="-301.3" font-family="Times,serif" font-size="14.00">MlkViewUpdate</text>
</g>
<!-- xBodyEl&#45;&gt;xMlkViewUpdate -->
<g id="edge1" class="edge"><title>xBodyEl&#45;&gt;xMlkViewUpdate</title>
<path fill="none" stroke="black" d="M103.956,-374.664C102.568,-364.151 102.639,-350.901 108.854,-341 112.045,-335.916 116.224,-331.54 120.95,-327.781"/>
<ellipse fill="black" stroke="black" cx="124.422" cy="-325.332" rx="4.00002" ry="4.00002"/>
<text text-anchor="middle" x="167.854" y="-345.3" font-family="Times,serif" font-size="14.00">selection → &#160;element</text>
</g>
<!-- xSpeakingEl -->
<g id="node3" class="node"><title>xSpeakingEl</title>
<polygon fill="none" stroke="black" points="187.104,-147 108.604,-147 108.604,-111 187.104,-111 187.104,-147"/>
<text text-anchor="middle" x="147.854" y="-125.3" font-family="Times,serif" font-size="14.00">SpeakingEl</text>
</g>
<!-- xMlkViewUpdate&#45;&gt;xSpeakingEl -->
<g id="edge6" class="edge"><title>xMlkViewUpdate&#45;&gt;xSpeakingEl</title>
<path fill="none" stroke="black" d="M185.854,-286C185.854,-286 164.765,-199.426 154.008,-155.266"/>
<ellipse fill="black" stroke="black" cx="153.012" cy="-151.177" rx="4.00001" ry="4.00001"/>
<text text-anchor="middle" x="222.354" y="-213.3" font-family="Times,serif" font-size="14.00">element → &#160;:start</text>
</g>
<!-- xAudioEl -->
<g id="node7" class="node"><title>xAudioEl</title>
<polygon fill="none" stroke="black" points="352.354,-235 291.354,-235 291.354,-199 352.354,-199 352.354,-235"/>
<text text-anchor="middle" x="321.854" y="-213.3" font-family="Times,serif" font-size="14.00">AudioEl</text>
</g>
<!-- xMlkViewUpdate&#45;&gt;xAudioEl -->
<g id="edge5" class="edge"><title>xMlkViewUpdate&#45;&gt;xAudioEl</title>
<path fill="none" stroke="black" d="M185.854,-286C185.854,-286 243.798,-257.028 284.042,-236.906"/>
<ellipse fill="black" stroke="black" cx="287.755" cy="-235.049" rx="4.00002" ry="4.00002"/>
<text text-anchor="middle" x="297.354" y="-257.3" font-family="Times,serif" font-size="14.00">element → &#160;:start</text>
</g>
<!-- xSpeaking -->
<g id="node4" class="node"><title>xSpeaking</title>
<polygon fill="none" stroke="black" points="306.104,-59 239.604,-59 239.604,-23 306.104,-23 306.104,-59"/>
<text text-anchor="middle" x="272.854" y="-37.3" font-family="Times,serif" font-size="14.00">Speaking</text>
</g>
<!-- xSpeakingEl&#45;&gt;xSpeaking -->
<g id="edge2" class="edge"><title>xSpeakingEl&#45;&gt;xSpeaking</title>
<path fill="none" stroke="black" d="M158.854,-110C158.854,-110 139.605,-89.2201 148.854,-77 154.024,-70.1678 197.423,-58.9766 231.439,-51.0915"/>
<ellipse fill="black" stroke="black" cx="235.515" cy="-50.1567" rx="4.00001" ry="4.00001"/>
<text text-anchor="middle" x="207.854" y="-81.3" font-family="Times,serif" font-size="14.00">selection → &#160;element</text>
</g>
<!-- xSilent -->
<g id="node5" class="node"><title>xSilent</title>
<polygon fill="none" stroke="black" points="189.854,-59 135.854,-59 135.854,-23 189.854,-23 189.854,-59"/>
<text text-anchor="middle" x="162.854" y="-37.3" font-family="Times,serif" font-size="14.00">Silent</text>
</g>
<!-- xSpeakingEl&#45;&gt;xSilent -->
<g id="edge3" class="edge"><title>xSpeakingEl&#45;&gt;xSilent</title>
<path fill="none" stroke="black" d="M158.854,-110C158.854,-110 19.1046,-105.589 7.85359,-93 -27.4301,-53.5211 71.4292,-44.5039 127.364,-42.5124"/>
<ellipse fill="black" stroke="black" cx="131.617" cy="-42.3813" rx="4" ry="4"/>
<text text-anchor="middle" x="66.8536" y="-81.3" font-family="Times,serif" font-size="14.00">selection → &#160;element</text>
</g>
<!-- xMlkView -->
<g id="node6" class="node"><title>xMlkView</title>
<polygon fill="none" stroke="black" points="283.104,-411 214.604,-411 214.604,-375 283.104,-375 283.104,-411"/>
<text text-anchor="middle" x="248.854" y="-389.3" font-family="Times,serif" font-size="14.00">MlkView</text>
</g>
<!-- xMlkView&#45;&gt;xMlkViewUpdate -->
<g id="edge4" class="edge"><title>xMlkView&#45;&gt;xMlkViewUpdate</title>
<path fill="none" stroke="black" d="M243.995,-374.667C240.446,-364.156 234.846,-350.906 226.854,-341 223.108,-336.357 218.597,-332.045 213.849,-328.147"/>
<ellipse fill="black" stroke="black" cx="210.448" cy="-325.534" rx="4.00002" ry="4.00002"/>
<text text-anchor="middle" x="271.354" y="-345.3" font-family="Times,serif" font-size="14.00">out → &#160;html</text>
</g>
<!-- xWebrtcHark -->
<g id="node8" class="node"><title>xWebrtcHark</title>
<polygon fill="none" stroke="black" points="444.354,-147 361.354,-147 361.354,-111 444.354,-111 444.354,-147"/>
<text text-anchor="middle" x="402.854" y="-125.3" font-family="Times,serif" font-size="14.00">WebrtcHark</text>
</g>
<!-- xAudioEl&#45;&gt;xWebrtcHark -->
<g id="edge7" class="edge"><title>xAudioEl&#45;&gt;xWebrtcHark</title>
<path fill="none" stroke="black" d="M338.245,-198.597C350.623,-185.455 367.723,-167.299 381.222,-152.967"/>
<ellipse fill="black" stroke="black" cx="384.02" cy="-149.996" rx="4.00002" ry="4.00002"/>
<text text-anchor="middle" x="425.354" y="-169.3" font-family="Times,serif" font-size="14.00">selection → &#160;stream</text>
</g>
<!-- xWebrtcHark&#45;&gt;xSpeaking -->
<g id="edge8" class="edge"><title>xWebrtcHark&#45;&gt;xSpeaking</title>
<path fill="none" stroke="black" d="M402.854,-110C402.854,-110 394.907,-87.6409 380.854,-77 361.486,-62.3349 335.733,-53.678 314.233,-48.6433"/>
<ellipse fill="black" stroke="black" cx="310.13" cy="-47.7432" rx="4.00001" ry="4.00001"/>
<text text-anchor="middle" x="445.354" y="-81.3" font-family="Times,serif" font-size="14.00">speaking → &#160;:start</text>
</g>
<!-- xWebrtcHark&#45;&gt;xSilent -->
<g id="edge10" class="edge"><title>xWebrtcHark&#45;&gt;xSilent</title>
<path fill="none" stroke="black" d="M402.854,-110C402.854,-110 333.788,-114.526 285.854,-93 275.783,-88.4773 276.476,-82.4112 266.854,-77 245.304,-64.8822 218.878,-56.0559 198.056,-50.2981"/>
<ellipse fill="black" stroke="black" cx="193.949" cy="-49.2" rx="4.00001" ry="4.00001"/>
<text text-anchor="middle" x="331.354" y="-81.3" font-family="Times,serif" font-size="14.00">silence → &#160;:start</text>
</g>
<!-- xSpeakingLog -->
<g id="node9" class="node"><title>xSpeakingLog</title>
<polygon fill="none" stroke="black" points="685.104,-59 596.604,-59 596.604,-23 685.104,-23 685.104,-59"/>
<text text-anchor="middle" x="640.854" y="-37.3" font-family="Times,serif" font-size="14.00">SpeakingLog</text>
</g>
<!-- xWebrtcHark&#45;&gt;xSpeakingLog -->
<g id="edge9" class="edge"><title>xWebrtcHark&#45;&gt;xSpeakingLog</title>
<path fill="none" stroke="black" d="M402.854,-110C402.854,-110 591.211,-105.323 610.854,-93 620.561,-86.9095 627.505,-76.4418 632.251,-66.5686"/>
<ellipse fill="black" stroke="black" cx="633.86" cy="-62.8826" rx="4.00002" ry="4.00002"/>
<text text-anchor="middle" x="676.354" y="-81.3" font-family="Times,serif" font-size="14.00">speaking → &#160;:start</text>
</g>
<!-- xSilenceLog -->
<g id="node10" class="node"><title>xSilenceLog</title>
<polygon fill="none" stroke="black" points="565.854,-59 487.854,-59 487.854,-23 565.854,-23 565.854,-59"/>
<text text-anchor="middle" x="526.854" y="-37.3" font-family="Times,serif" font-size="14.00">SilenceLog</text>
</g>
<!-- xWebrtcHark&#45;&gt;xSilenceLog -->
<g id="edge11" class="edge"><title>xWebrtcHark&#45;&gt;xSilenceLog</title>
<path fill="none" stroke="black" d="M402.854,-110C402.854,-110 486.761,-107.168 504.854,-93 513.039,-86.5903 518.232,-76.534 521.501,-67.0394"/>
<ellipse fill="black" stroke="black" cx="522.672" cy="-63.1208" rx="4.00001" ry="4.00001"/>
<text text-anchor="middle" x="561.354" y="-81.3" font-family="Times,serif" font-size="14.00">silence → &#160;:start</text>
</g>
</g>
</svg>
